<svg width="180" height="33" viewBox="0 0 180 33" fill="none" xmlns="http://www.w3.org/2000/svg">
<rect y="28.3661" width="161.704" height="4.22234" rx="2.11117" transform="rotate(-0.432589 0 28.3661)" fill="url(#paint0_linear)"/>
<path d="M16.584 26.324C14.694 26.324 13.056 25.982 11.67 25.298C10.284 24.614 9.222 23.651 8.484 22.409C7.746 21.167 7.377 19.736 7.377 18.116C7.377 15.974 7.863 14.048 8.835 12.338C9.825 10.61 11.202 9.251 12.966 8.261C14.748 7.271 16.782 6.776 19.068 6.776C20.958 6.776 22.596 7.118 23.982 7.802C25.368 8.486 26.43 9.449 27.168 10.691C27.906 11.933 28.275 13.364 28.275 14.984C28.275 17.126 27.78 19.061 26.79 20.789C25.818 22.499 24.441 23.849 22.659 24.839C20.895 25.829 18.87 26.324 16.584 26.324ZM16.962 22.598C18.348 22.598 19.563 22.265 20.607 21.599C21.651 20.933 22.452 20.042 23.01 18.926C23.568 17.81 23.847 16.577 23.847 15.227C23.847 13.787 23.397 12.644 22.497 11.798C21.597 10.934 20.328 10.502 18.69 10.502C17.304 10.502 16.089 10.835 15.045 11.501C14.001 12.167 13.2 13.058 12.642 14.174C12.084 15.29 11.805 16.523 11.805 17.873C11.805 19.313 12.255 20.465 13.155 21.329C14.055 22.175 15.324 22.598 16.962 22.598ZM40.6343 11.258C42.2543 11.258 43.5413 11.69 44.4953 12.554C45.4493 13.4 45.9263 14.615 45.9263 16.199C45.9263 16.793 45.8633 17.378 45.7373 17.954L44.1173 26H39.9053L41.4713 18.224C41.5433 17.918 41.5793 17.585 41.5793 17.225C41.5793 16.469 41.3723 15.893 40.9583 15.497C40.5443 15.101 39.9233 14.903 39.0953 14.903C38.0153 14.903 37.1153 15.218 36.3953 15.848C35.6933 16.46 35.2163 17.387 34.9643 18.629L33.5063 26H29.2943L32.1833 11.474H36.1793L35.8553 13.04C37.1513 11.852 38.7443 11.258 40.6343 11.258ZM51.9582 5.966H56.1702L52.1742 26H47.9622L51.9582 5.966ZM58.9723 11.474H63.1573L60.2683 26H56.0833L58.9723 11.474ZM61.7803 9.449C61.0603 9.449 60.4663 9.242 59.9983 8.828C59.5483 8.396 59.3233 7.874 59.3233 7.262C59.3233 6.542 59.5753 5.948 60.0793 5.48C60.6013 4.994 61.2763 4.751 62.1043 4.751C62.8423 4.751 63.4363 4.958 63.8863 5.372C64.3543 5.768 64.5883 6.263 64.5883 6.857C64.5883 7.631 64.3273 8.261 63.8053 8.747C63.2833 9.215 62.6083 9.449 61.7803 9.449ZM75.518 11.258C77.138 11.258 78.425 11.69 79.379 12.554C80.333 13.4 80.81 14.615 80.81 16.199C80.81 16.793 80.747 17.378 80.621 17.954L79.001 26H74.789L76.355 18.224C76.427 17.918 76.463 17.585 76.463 17.225C76.463 16.469 76.256 15.893 75.842 15.497C75.428 15.101 74.807 14.903 73.979 14.903C72.899 14.903 71.999 15.218 71.279 15.848C70.577 16.46 70.1 17.387 69.848 18.629L68.39 26H64.178L67.067 11.474H71.063L70.739 13.04C72.035 11.852 73.628 11.258 75.518 11.258ZM98.7722 17.657C98.7722 18.323 98.6912 19.061 98.5292 19.871H87.4052C87.5492 21.851 88.8002 22.841 91.1582 22.841C91.8962 22.841 92.5982 22.724 93.2642 22.49C93.9482 22.256 94.5422 21.923 95.0462 21.491L96.8012 24.272C95.9912 24.92 95.0642 25.406 94.0202 25.73C92.9762 26.054 91.8782 26.216 90.7262 26.216C89.2322 26.216 87.9182 25.955 86.7842 25.433C85.6682 24.893 84.8042 24.128 84.1922 23.138C83.5982 22.148 83.3012 21.005 83.3012 19.709C83.3012 18.107 83.6612 16.667 84.3812 15.389C85.1192 14.093 86.1362 13.085 87.4322 12.365C88.7282 11.627 90.2042 11.258 91.8602 11.258C93.2642 11.258 94.4792 11.519 95.5052 12.041C96.5492 12.563 97.3502 13.31 97.9082 14.282C98.4842 15.254 98.7722 16.379 98.7722 17.657ZM91.6712 14.417C90.6812 14.417 89.8442 14.687 89.1602 15.227C88.4762 15.749 87.9902 16.478 87.7022 17.414H94.9112C94.9112 16.478 94.6142 15.749 94.0202 15.227C93.4442 14.687 92.6612 14.417 91.6712 14.417ZM114.463 26.324C112.969 26.324 111.538 26.126 110.17 25.73C108.802 25.334 107.704 24.83 106.876 24.218L108.658 20.843C109.522 21.473 110.494 21.959 111.574 22.301C112.654 22.643 113.761 22.814 114.895 22.814C116.101 22.814 117.055 22.616 117.757 22.22C118.459 21.824 118.81 21.284 118.81 20.6C118.81 20.042 118.531 19.619 117.973 19.331C117.415 19.025 116.524 18.701 115.3 18.359C114.076 17.999 113.077 17.657 112.303 17.333C111.529 16.991 110.854 16.487 110.278 15.821C109.72 15.155 109.441 14.273 109.441 13.175C109.441 11.897 109.792 10.772 110.494 9.8C111.214 8.828 112.222 8.081 113.518 7.559C114.832 7.037 116.353 6.776 118.081 6.776C119.359 6.776 120.565 6.92 121.699 7.208C122.833 7.478 123.805 7.874 124.615 8.396L122.968 11.744C122.266 11.258 121.474 10.898 120.592 10.664C119.71 10.412 118.792 10.286 117.838 10.286C116.596 10.286 115.615 10.502 114.895 10.934C114.175 11.366 113.815 11.924 113.815 12.608C113.815 13.022 113.968 13.373 114.274 13.661C114.58 13.931 114.967 14.156 115.435 14.336C115.903 14.498 116.56 14.696 117.406 14.93C118.612 15.254 119.602 15.587 120.376 15.929C121.15 16.253 121.807 16.739 122.347 17.387C122.905 18.017 123.184 18.854 123.184 19.898C123.184 21.194 122.824 22.328 122.104 23.3C121.384 24.254 120.367 25.001 119.053 25.541C117.739 26.063 116.209 26.324 114.463 26.324ZM136.163 11.258C137.783 11.258 139.07 11.69 140.024 12.554C140.978 13.418 141.455 14.642 141.455 16.226C141.455 16.802 141.392 17.378 141.266 17.954L139.646 26H135.434L137 18.224C137.072 17.918 137.108 17.585 137.108 17.225C137.108 16.469 136.901 15.893 136.487 15.497C136.073 15.101 135.452 14.903 134.624 14.903C133.544 14.903 132.644 15.218 131.924 15.848C131.222 16.46 130.745 17.387 130.493 18.629L129.035 26H124.823L128.819 5.966H133.031L131.681 12.797C132.923 11.771 134.417 11.258 136.163 11.258ZM151.236 26.216C149.778 26.216 148.491 25.946 147.375 25.406C146.277 24.866 145.422 24.11 144.81 23.138C144.216 22.148 143.919 21.005 143.919 19.709C143.919 18.107 144.297 16.667 145.053 15.389C145.809 14.111 146.853 13.103 148.185 12.365C149.517 11.627 151.02 11.258 152.694 11.258C154.17 11.258 155.457 11.528 156.555 12.068C157.653 12.608 158.499 13.373 159.093 14.363C159.705 15.335 160.011 16.469 160.011 17.765C160.011 19.367 159.633 20.807 158.877 22.085C158.139 23.363 157.095 24.371 155.745 25.109C154.413 25.847 152.91 26.216 151.236 26.216ZM151.506 22.733C152.316 22.733 153.045 22.535 153.693 22.139C154.341 21.725 154.845 21.158 155.205 20.438C155.565 19.718 155.745 18.89 155.745 17.954C155.745 16.964 155.457 16.181 154.881 15.605C154.305 15.029 153.495 14.741 152.451 14.741C151.623 14.741 150.885 14.948 150.237 15.362C149.589 15.758 149.085 16.316 148.725 17.036C148.365 17.756 148.185 18.584 148.185 19.52C148.185 20.51 148.473 21.293 149.049 21.869C149.643 22.445 150.462 22.733 151.506 22.733ZM172.358 11.258C173.492 11.258 174.536 11.519 175.49 12.041C176.462 12.563 177.227 13.319 177.785 14.309C178.361 15.281 178.649 16.433 178.649 17.765C178.649 19.367 178.289 20.816 177.569 22.112C176.867 23.39 175.904 24.398 174.68 25.136C173.456 25.856 172.097 26.216 170.603 26.216C168.389 26.216 166.823 25.496 165.905 24.056L164.474 31.238H160.262L164.204 11.474H168.2L167.903 12.905C169.109 11.807 170.594 11.258 172.358 11.258ZM170.117 22.733C170.945 22.733 171.683 22.535 172.331 22.139C172.979 21.725 173.483 21.158 173.843 20.438C174.203 19.718 174.383 18.89 174.383 17.954C174.383 16.964 174.086 16.181 173.492 15.605C172.916 15.029 172.106 14.741 171.062 14.741C170.252 14.741 169.523 14.948 168.875 15.362C168.227 15.758 167.723 16.316 167.363 17.036C167.003 17.756 166.823 18.584 166.823 19.52C166.823 20.51 167.111 21.293 167.687 21.869C168.263 22.445 169.073 22.733 170.117 22.733Z" fill="white"/>
<defs>
<linearGradient id="paint0_linear" x1="1.62263e-06" y1="29.8079" x2="0.626851" y2="41.3423" gradientUnits="userSpaceOnUse">
<stop offset="0.0153787" stop-color="#1BC400"/>
<stop offset="1" stop-color="#24FF00" stop-opacity="0"/>
</linearGradient>
</defs>
</svg>
